<?xml version="1.0" encoding="utf-8"?>
<!-- Generator: Adobe Illustrator 24.0.3, SVG Export Plug-In . SVG Version: 6.00 Build 0)  -->
<svg version="1.1" id="Layer_1" xmlns="http://www.w3.org/2000/svg" xmlns:xlink="http://www.w3.org/1999/xlink" x="0px" y="0px"
	 viewBox="0 0 1687.2 228.1" style="enable-background:new 0 0 1687.2 228.1;" xml:space="preserve">
<style type="text/css">
	.st0{fill:#808080;}
	.st1{fill:#00CC66;}
	.st2{fill:#231F20;}
</style>
<title>Cortex_XSoar_logos_RGB</title>
<path class="st0" d="M1195,133.4v-21h0.1c13.2,7.2,29,11.6,41.9,11.6c12.7,0,19.1-3.7,19.1-9.9c0-6.4-5.3-8.3-26.7-12
	c-16.2-2.8-34.4-7.9-34.4-26.4c0-15.6,12.8-30.6,41.9-30.6c11.7,0,25.2,3.3,34.8,8.8v21h-0.1c-10.7-6.8-24.3-10.9-36.3-10.9
	c-13.3,0-18.8,4-18.8,9.7c0,7.9,11.5,8.7,26.2,11.3c16.1,2.9,35,7.6,35,27.8c0,11.1-6,30-40.7,30
	C1219.2,142.9,1205.8,138.7,1195,133.4z"/>
<path class="st0" d="M1296,94c0-29.6,19.9-48.8,51.4-48.8s51.4,19.2,51.4,48.8s-19.9,48.9-51.4,48.9S1296,123.6,1296,94z M1377.7,94
	c0-18.8-10.8-30.3-30.2-30.3s-30.4,11.5-30.4,30.3s10.8,30.3,30.2,30.3S1377.7,112.8,1377.7,94L1377.7,94z"/>
<path class="st0" d="M1447.7,47.3h31.6l36.3,93.4h-21.5l-8.4-22.2h-44.8l-8.5,22.2h-21.1L1447.7,47.3z M1447.8,100.5h31l-12.9-33.9
	h-4.9L1447.8,100.5z"/>
<path class="st0" d="M1535.8,47.3h49.6c23.9,0,35.5,11.2,35.5,32.2c0,15.5-6.8,25.5-20,29.8l23.8,31.5h-24.2l-19.8-27.5h-24.4v27.5
	h-20.6L1535.8,47.3z M1584.9,95.1c11.2,0,15.2-6.3,15.2-14.7s-4-14.5-15.2-14.5h-28.6v29.2H1584.9z"/>
<path class="st0" d="M1072.4,140.7v-0.1l39.1-48.2l-36.2-45v-0.1h24.7l24.7,31.9l25.1-31.9h24.3v0.1l-36,44.6l38.7,48.6v0.1h-25
	l-27.2-35.4l-27.8,35.4L1072.4,140.7z"/>
<path class="st1" d="M169.1,93.6c0,26.7-21.6,48.3-48.3,48.3V45.2C147.5,45.2,169.1,66.9,169.1,93.6
	C169.1,93.6,169.1,93.6,169.1,93.6z"/>
<path class="st1" d="M72.5,93.6c0,26.7,21.6,48.3,48.3,48.3v36.4c-46.8-0.5-84.3-38.8-83.7-85.6c0.5-46,37.7-83.2,83.7-83.7v36.2
	C94.1,45.2,72.5,66.9,72.5,93.6L72.5,93.6z"/>
<path class="st2" d="M1043.9,47.2h-0.2c-0.1,0-0.1,0-0.2,0c-0.1,0-0.1,0.1-0.2,0.1c-0.1,0.1-0.1,0.1-0.1,0.2l-2.4,4.8
	c-0.1,0.2-0.2,0.3-0.2,0.5l-0.2,0.6c-0.1-0.2-0.2-0.4-0.2-0.5s-0.2-0.3-0.2-0.5l-2.4-4.8c0-0.1-0.1-0.1-0.1-0.2c0,0-0.1-0.1-0.2-0.1
	c-0.1,0-0.1,0-0.2,0h-1.9v9.5h1.9v-5.5c0-0.1,0-0.3,0-0.4v-0.5l2.5,4.9c0.1,0.1,0.2,0.3,0.3,0.3c0.1,0.1,0.3,0.1,0.5,0.1h0.3
	c0.2,0,0.3,0,0.5-0.1c0.1-0.1,0.2-0.2,0.3-0.3l2.5-4.9c0,0.1,0,0.3,0,0.5c0,0.2,0,0.3,0,0.4v5.5h1.9v-9.5H1043.9z M1033.8,47.2h-7.5
	V49h2.7v7.7h2.2V49h2.7V47.2z"/>
<path class="st2" d="M1043.9,47.2h-0.2c-0.1,0-0.1,0-0.2,0c-0.1,0-0.1,0.1-0.2,0.1c-0.1,0.1-0.1,0.1-0.1,0.2l-2.4,4.8
	c-0.1,0.2-0.2,0.3-0.2,0.5l-0.2,0.6c-0.1-0.2-0.2-0.4-0.2-0.5s-0.2-0.3-0.2-0.5l-2.4-4.8c0-0.1-0.1-0.1-0.1-0.2c0,0-0.1-0.1-0.2-0.1
	c-0.1,0-0.1,0-0.2,0h-1.9v9.5h1.9v-5.5c0-0.1,0-0.3,0-0.4v-0.5l2.5,4.9c0.1,0.1,0.2,0.3,0.3,0.3c0.1,0.1,0.3,0.1,0.5,0.1h0.3
	c0.2,0,0.3,0,0.5-0.1c0.1-0.1,0.2-0.2,0.3-0.3l2.5-4.9c0,0.1,0,0.3,0,0.5c0,0.2,0,0.3,0,0.4v5.5h1.9v-9.5H1043.9z M1033.8,47.2h-7.5
	V49h2.7v7.7h2.2V49h2.7V47.2z"/>
<path class="st2" d="M222,94.1c0,28.6,22.6,48.7,62.2,48.7c12.5,0.1,25-2.3,36.6-7.1V113c-10.1,5.1-20.8,9.4-35.2,9.4
	c-23,0-37.4-10.8-37.4-28.5c0-17.3,15-28.5,37.7-28.5c14.5,0,24.8,4.3,34.9,9.4V52c-11.5-4.6-23.8-7-36.3-6.8
	C245.9,45.1,222,66.7,222,94.1z"/>
<path class="st2" d="M609.7,77.8c0-19.2-14.5-30.6-41.8-30.6h-57v93.5h26v-32h19.2l28.8,32h29.7l-31.1-33.8
	C599.1,102.9,609.7,93,609.7,77.8z M561.6,90.6h-24.8V66h26c14.6,0,20.6,4.3,20.6,12.2C583.4,86.5,576.1,90.6,561.6,90.6z"/>
<polygon class="st2" points="641,67.3 680.3,67.3 680.3,140.7 706.3,140.7 706.3,67.3 745.6,67.3 745.6,47.2 641,47.2 "/>
<polygon class="st2" points="782.4,140.7 873,140.7 873,121.6 808,121.6 808,102.1 856.2,102.1 856.2,84.7 808,84.7 808,66.3 
	873,66.3 873,47.2 782.4,47.2 "/>
<polygon class="st2" points="974.5,93.3 1016.4,47.2 985.6,47.2 959.2,78.6 932.6,47.2 900.8,47.2 942.8,93.5 899.6,140.7 
	930.4,140.7 958,109.7 985.8,140.7 1017.6,140.7 "/>
<path class="st2" d="M474.1,93.9c0,29.5-23,49.3-58,49.3c-34.7,0-57.7-19.8-57.7-49.3s23-49.3,57.7-49.3
	C451.1,44.7,474.1,64.6,474.1,93.9z M386.8,93.9c0,17.4,12.9,27.7,29.4,27.7s29.6-10.2,29.6-27.7s-13.1-27.7-29.6-27.7
	S386.8,76.4,386.8,93.9L386.8,93.9z"/>
<path class="st0" d="M236.5,179.9h16.3c5.4,0,8.6,2.2,8.6,6.5c0,2.9-1.1,4.9-4.4,5.9c3.3,1.3,4.9,3.1,4.9,6.1c0,5.4-4.1,7.3-9.8,7.3
	h-15.7V179.9z M250.7,190.2c2.1,0,3-0.7,3-2.3s-1-2.2-3-2.2h-6.6v4.5L250.7,190.2z M251.1,199.9c2.3,0,3.2-0.7,3.2-2.4
	s-0.9-2.4-3.2-2.4h-6.9v4.9L251.1,199.9z"/>
<path class="st0" d="M277.5,197.5l-11.3-17.6h8.7l6.4,10.3h0.4l6.5-10.3h8.5l-11.3,17.5v8.3h-7.8V197.5z"/>
<path class="st0" d="M316.8,179.9H332c6.4,0,9.7,3.7,9.7,9.6c0,6.8-4.3,9.9-10.3,9.9h-6.9v6.3h-7.8V179.9z M330.7,193.3
	c2.4,0,3.4-1.6,3.4-3.6c0-2.3-1.1-3.6-3.5-3.6h-6v7.2H330.7z"/>
<path class="st0" d="M354.3,179.9h12.5l9,25.8h-8.1l-1.8-5.4h-10.7l-1.8,5.4h-8L354.3,179.9z M357,194.6h7l-2.8-8.1h-1.4L357,194.6z
	"/>
<path class="st0" d="M382.5,179.9h7.8v19.1H404l-0.3,6.7h-21.2V179.9z"/>
<path class="st0" d="M409.1,192.8c0-8.4,5.7-13.7,14.8-13.7s14.8,5.3,14.8,13.7s-5.7,13.7-14.8,13.7S409.1,201.2,409.1,192.8z
	 M430.9,192.8c0-4.5-2.6-7.1-7-7.1s-7,2.6-7,7.1s2.6,7.1,7,7.1S430.9,197.3,430.9,192.8z"/>
<path class="st0" d="M467,179.9h12.5l9,25.8h-8.1l-1.8-5.4h-10.7l-1.9,5.4h-8L467,179.9z M469.7,194.6h6.9l-2.8-8.1h-1.4
	L469.7,194.6z"/>
<path class="st0" d="M495.3,179.9h7.7v19.1h13.7l-0.3,6.7h-21.1V179.9z"/>
<path class="st0" d="M527.5,186.6h-9l0.3-6.6h25.3l0.3,6.6h-9v19.2h-7.8L527.5,186.6z"/>
<path class="st0" d="M549.4,192.8c0-8.4,5.7-13.7,14.8-13.7s14.8,5.3,14.8,13.7s-5.7,13.7-14.8,13.7S549.4,201.2,549.4,192.8z
	 M571.2,192.8c0-4.5-2.6-7.1-7-7.1s-7,2.6-7,7.1s2.6,7.1,7,7.1S571.2,197.3,571.2,192.8z"/>
<path class="st0" d="M600.8,179.9h8l11.2,14.6h0.1v-14.6h7.4v25.8h-7.8l-11.4-15h-0.1v15h-7.4V179.9z"/>
<path class="st0" d="M636.7,179.9h22.6l0.3,6.3h-15.2v3.5h11.9v5.7h-11.9v4H660l-0.3,6.3h-23L636.7,179.9z"/>
<path class="st0" d="M675.1,186.6h-9l0.3-6.6h25.3l0.3,6.6h-9v19.2h-7.8L675.1,186.6z"/>
<path class="st0" d="M697.6,179.9h8.3l4.2,17.9h0.4l5.5-17.9h7.6l5.3,17.9h0.4l4.1-17.9h7.9l-6.8,25.8h-10.1l-4.7-15.6h-0.2
	l-4.8,15.6h-10.2L697.6,179.9z"/>
<path class="st0" d="M746.3,192.8c0-8.4,5.7-13.7,14.8-13.7s14.8,5.3,14.8,13.7s-5.7,13.7-14.8,13.7S746.3,201.2,746.3,192.8z
	 M768.1,192.8c0-4.5-2.6-7.1-7-7.1s-7,2.6-7,7.1s2.6,7.1,7,7.1S768.1,197.3,768.1,192.8z"/>
<path class="st0" d="M783.6,179.9h15.1c6.9,0,10.2,3.2,10.2,9.3c0,4.1-1.7,6.9-5,8.3l6.1,8.3h-8.8l-4.8-6.7h-5.1v6.8h-7.8
	L783.6,179.9z M797.7,192.9c2.6,0,3.5-1.4,3.5-3.4s-0.9-3.4-3.5-3.4h-6.3v6.8H797.7z"/>
<path class="st0" d="M816.8,179.9h7.8v9.5h3.2l7.6-9.5h8.7l0,0l-9.9,12.4l10.4,13.4l0,0h-9l-7.8-9.9h-3.1v9.9h-7.8V179.9z"/>
<path class="st0" d="M849.9,204v-7l0,0c3.8,2,7.9,3.1,12.2,3.2c2.8,0,4.2-0.7,4.2-2s-0.9-1.6-6.5-2.5c-6-1-10.1-2.8-10.1-8
	c0-4.8,4.2-8.6,12.5-8.6c3.4,0,6.8,0.7,10,2.1v7l0,0c-3.2-1.8-6.8-2.8-10.5-2.9c-3,0-4.1,0.7-4.1,1.9c0,1.5,1.8,1.7,6.3,2.4
	c6.1,1.1,10.1,2.8,10.1,8.3c0,4.2-3.2,8.5-12.3,8.5C857.6,206.4,853.6,205.6,849.9,204z"/>
</svg>
