<svg id="Layer_1" data-name="Layer 1" xmlns="http://www.w3.org/2000/svg" viewBox="0 0 51.62 40.6"><defs><style>.cls-1{fill:#231f20;}</style></defs><title>Cortex-SOAR-black</title><path class="cls-1" d="M20.65,32.58A12.28,12.28,0,0,1,20.64,8h0ZM20.65,8V0H20.3a20.3,20.3,0,0,0,0,40.6h.35v-8A12.28,12.28,0,0,0,20.66,8h0"/><path class="cls-1" d="M46,18.53l-.76-.13c-1.52-.27-2.39-.43-2.39-.83,0-.61,1.22-.7,1.94-.7a10.07,10.07,0,0,1,3.25.6,2,2,0,0,0,1.8-.25,2.05,2.05,0,0,0-.47-3.59,13,13,0,0,0-4.31-.76c-5,0-6.84,2.67-6.84,5,0,3.19,3,4.08,5.56,4.5,2.9.49,3.2.69,3.2,1,0,.66-1.5.71-2,.71a15.59,15.59,0,0,1-4-.92,2.13,2.13,0,0,0-2.78,2,2.12,2.12,0,0,0,1.39,2,15,15,0,0,0,5.26.9c6.21,0,6.69-3.74,6.69-4.89C51.62,19.5,48,18.87,46,18.53Z"/></svg>