<svg id="Layer_1" data-name="Layer 1" xmlns="http://www.w3.org/2000/svg" viewBox="0 0 26.5 30.1"><defs><style>.cls-1{fill:#46b865;}</style></defs><title>Cortex-SOAR-product-green</title><path class="cls-1" d="M15.42,11.21l-1.5-.27c-3-.52-4.74-.85-4.74-1.63,0-1.21,2.41-1.39,3.84-1.39a20,20,0,0,1,6.44,1.19A3.89,3.89,0,0,0,23,8.61a4,4,0,0,0-.92-7.1A25.72,25.72,0,0,0,13.56,0C3.55,0,0,5.28,0,9.8c0,6.33,5.89,8.08,11,8.91,5.74,1,6.34,1.37,6.34,2.05,0,1.32-3,1.43-3.88,1.43a30.78,30.78,0,0,1-7.89-1.83A4.13,4.13,0,0,0,1.82,21,4.15,4.15,0,0,0,.08,24.36a4.21,4.21,0,0,0,2.77,4,29.73,29.73,0,0,0,10.4,1.78c12.3,0,13.25-7.41,13.25-9.69C26.5,13.14,19.29,11.88,15.42,11.21Z"/></svg>