<svg id="Layer_1" data-name="Layer 1" xmlns="http://www.w3.org/2000/svg" viewBox="0 0 1047.53 459.12"><defs><style>.cls-1{fill:#0c6;}.cls-2{fill:#231f20;}.cls-3{fill:gray;}</style></defs><title>Cortex_XSoar_logos_RGB</title><path class="cls-1" d="M132.57,116.87a35,35,0,0,1-35,35V81.83A35,35,0,0,1,132.57,116.87Z"/><path class="cls-1" d="M62.49,116.87a35,35,0,0,0,35,35v26.42a61.39,61.39,0,0,1,0-122.78V81.83A35,35,0,0,0,62.49,116.87Z"/><path class="cls-2" d="M766.83,83.26h-.18l-.14,0a.41.41,0,0,0-.11.07l-.1.14L764.54,87c-.07.12-.13.24-.19.37l-.17.41c0-.14-.1-.27-.16-.4l-.18-.37-1.77-3.49-.1-.14a.41.41,0,0,0-.11-.07l-.14,0h-1.4v6.87h1.41V86.18c0-.09,0-.19,0-.3l0-.33,1.83,3.54a.56.56,0,0,0,.23.25.58.58,0,0,0,.33.09h.21a.58.58,0,0,0,.33-.09.56.56,0,0,0,.23-.25l1.83-3.53c0,.11,0,.21,0,.32s0,.21,0,.3v3.95h1.41V83.26Zm-7.32,0h-5.46v1.26H756v5.61h1.6V84.52h1.93Z"/><path class="cls-2" d="M766.83,83.26h-.18l-.14,0a.41.41,0,0,0-.11.07l-.1.14L764.54,87c-.07.12-.13.24-.19.37l-.17.41c0-.14-.1-.27-.16-.4l-.18-.37-1.77-3.49-.1-.14a.41.41,0,0,0-.11-.07l-.14,0h-1.4v6.87h1.41V86.18c0-.09,0-.19,0-.3l0-.33,1.83,3.54a.56.56,0,0,0,.23.25.58.58,0,0,0,.33.09h.21a.58.58,0,0,0,.33-.09.56.56,0,0,0,.23-.25l1.83-3.53c0,.11,0,.21,0,.32s0,.21,0,.3v3.95h1.41V83.26Zm-7.32,0h-5.46v1.26H756v5.61h1.6V84.52h1.93Z"/><path class="cls-2" d="M170.91,117.26c0,20.76,16.36,35.31,45.08,35.31a69.08,69.08,0,0,0,26.52-5.12V131c-7.34,3.73-15.11,6.84-25.54,6.84-16.69,0-27.1-7.83-27.1-20.65,0-12.52,10.84-20.67,27.32-20.67,10.47,0,18,3.15,25.32,6.82V86.7a68.5,68.5,0,0,0-26.3-5C188.25,81.74,170.91,97.41,170.91,117.26Z"/><path class="cls-2" d="M452,105.45c0-13.94-10.51-22.19-30.34-22.19H380.34V151H399.2v-23.2h13.93L434.05,151h21.57l-22.54-24.52C444.35,123.67,452,116.44,452,105.45Zm-34.9,9.26H399.2V96.9H418c10.62,0,15,3.16,15,8.86C433,111.76,427.66,114.71,417.14,114.71Z"/><polygon class="cls-2" points="474.71 97.82 503.2 97.82 503.2 151.04 522.05 151.04 522.05 97.82 550.53 97.82 550.53 83.27 474.71 83.27 474.71 97.82"/><polygon class="cls-2" points="577.26 151.04 642.9 151.04 642.9 137.2 595.8 137.2 595.8 123.06 630.76 123.06 630.76 110.44 595.8 110.44 595.8 97.11 642.9 97.11 642.9 83.27 577.26 83.27 577.26 151.04"/><polygon class="cls-2" points="716.49 116.65 746.92 83.27 724.59 83.27 705.41 105.98 686.16 83.27 663.08 83.27 693.51 116.85 662.21 151.04 684.53 151.04 704.58 128.59 724.7 151.04 747.78 151.04 716.49 116.65"/><path class="cls-2" d="M353.7,117.14c0,21.38-16.7,35.74-42.05,35.74-25.15,0-41.85-14.36-41.85-35.74S286.5,81.4,311.65,81.4C337,81.4,353.7,95.86,353.7,117.14Zm-63.33,0c0,12.63,9.37,20.06,21.28,20.06s21.48-7.43,21.48-20.06-9.47-20.06-21.48-20.06S290.37,104.41,290.37,117.14Z"/><path class="cls-3" d="M178.73,355.39h14.52c4.8,0,7.7,2,7.7,5.8a5,5,0,0,1-3.88,5.3c3,1.18,4.38,2.73,4.38,5.46,0,4.78-3.66,6.49-8.73,6.49h-14Zm12.67,9.22c1.91,0,2.7-.59,2.7-2.07s-.85-2-2.7-2h-5.86v4.05Zm.33,8.6c2,0,2.84-.66,2.84-2.18s-.8-2.14-2.84-2.14h-6.19v4.35Z"/><path class="cls-3" d="M215.32,371.07l-10.11-15.68H213l5.7,9.19H219l5.76-9.19h7.58L222.27,371v7.41h-7Z"/><path class="cls-3" d="M250.36,355.39H264c5.67,0,8.66,3.26,8.66,8.6,0,6-3.85,8.79-9.18,8.79h-6.16v5.66h-6.92Zm12.38,12a2.87,2.87,0,0,0,3.07-3.2c0-2.07-1-3.19-3.13-3.19h-5.4v6.39Z"/><path class="cls-3" d="M283.83,355.39H295l8,23.05h-7.24l-1.62-4.77h-9.51l-1.65,4.77h-7.11Zm2.44,13.11h6.19L290,361.25h-1.25Z"/><path class="cls-3" d="M309,355.39H316v17.09h12.21l-.26,6H309Z"/><path class="cls-3" d="M332.69,366.92c0-7.51,5.1-12.22,13.17-12.22S359,359.41,359,366.92s-5.11,12.21-13.17,12.21S332.69,374.42,332.69,366.92Zm19.45,0c0-4-2.3-6.36-6.28-6.36s-6.29,2.37-6.29,6.36,2.3,6.35,6.25,6.35S352.14,370.9,352.14,366.92Z"/><path class="cls-3" d="M384.42,355.39h11.13l8,23.05h-7.24l-1.62-4.77h-9.51l-1.65,4.77h-7.11Zm2.44,13.11h6.19l-2.47-7.25h-1.25Z"/><path class="cls-3" d="M409.62,355.39h6.92v17.09h12.21l-.26,6H409.62Z"/><path class="cls-3" d="M438.41,361.32h-8.06l.26-5.93h22.55l.27,5.93h-8.07v17.12h-6.95Z"/><path class="cls-3" d="M458,366.92c0-7.51,5.1-12.22,13.17-12.22s13.17,4.71,13.17,12.22-5.1,12.21-13.17,12.21S458,374.42,458,366.92Zm19.46,0c0-4-2.3-6.36-6.29-6.36s-6.29,2.37-6.29,6.36,2.31,6.35,6.26,6.35S477.41,370.9,477.41,366.92Z"/><path class="cls-3" d="M503.83,355.39H511l9.92,13.07H521V355.39h6.59v23.05h-7L510.51,365h-.1v13.4h-6.58Z"/><path class="cls-3" d="M535.81,355.39H556l.27,5.6H542.69v3.16h10.64v5.1H542.69v3.59h13.93l-.26,5.6H535.81Z"/><path class="cls-3" d="M570.1,361.32H562l.26-5.93h22.56l.26,5.93h-8.06v17.12H570.1Z"/><path class="cls-3" d="M590.13,355.39h7.38l3.75,16h.36l4.88-16h6.75l4.77,16h.36l3.69-16h7l-6.06,23.05H614l-4.21-13.89h-.2l-4.28,13.89h-9.09Z"/><path class="cls-3" d="M633.64,366.92c0-7.51,5.1-12.22,13.17-12.22S660,359.41,660,366.92s-5.1,12.21-13.17,12.21S633.64,374.42,633.64,366.92Zm19.46,0c0-4-2.31-6.36-6.29-6.36s-6.29,2.37-6.29,6.36,2.31,6.35,6.26,6.35S653.1,370.9,653.1,366.92Z"/><path class="cls-3" d="M666.91,355.39h13.43c6.13,0,9.12,2.9,9.12,8.27,0,3.69-1.51,6.19-4.48,7.37l5.47,7.41h-7.84l-4.24-6.06h-4.55v6.06h-6.91ZM679.45,367c2.31,0,3.13-1.28,3.13-3s-.82-3-3.13-3h-5.63v6Z"/><path class="cls-3" d="M696.59,355.39h6.91v8.5h2.83l6.75-8.5h7.77l0,0-8.83,11,9.32,12,0,0h-8.07l-7-8.86h-2.8v8.86h-6.91Z"/><path class="cls-3" d="M726.07,376.93V370.6h0A24.56,24.56,0,0,0,737,373.5c2.47,0,3.72-.59,3.72-1.74s-.83-1.45-5.77-2.24c-5.4-.86-9-2.47-9-7.11,0-4.32,3.78-7.64,11.19-7.64a23,23,0,0,1,8.92,1.84v6.26l0,0a20.19,20.19,0,0,0-9.38-2.57c-2.64,0-3.69.63-3.69,1.68,0,1.35,1.61,1.48,5.66,2.17,5.4.93,9,2.44,9,7.31,0,3.79-2.83,7.58-11,7.58A27.65,27.65,0,0,1,726.07,376.93Z"/><path class="cls-3" d="M356.74,310.5V280.07h.19c19.18,10.47,42.05,16.86,60.84,16.86,18.41,0,27.71-5.42,27.71-14.34,0-9.3-7.75-12-38.75-17.44-23.45-4.06-50-11.43-50-38.36,0-22.67,18.6-44.37,60.84-44.37,17.05,0,36.62,4.84,50.57,12.79v30.42H468c-15.5-9.88-35.26-15.89-52.7-15.89-19.37,0-27.32,5.81-27.32,14.14,0,11.44,16.66,12.6,38,16.47,23.44,4.27,50.76,11.05,50.76,40.31,0,16.08-8.72,43.59-59.09,43.59C391.81,324.25,372.43,318.25,356.74,310.5Z"/><path class="cls-3" d="M503.41,253.34c0-43,28.87-70.92,74.6-70.92s74.6,27.9,74.6,70.92-28.87,70.91-74.6,70.91S503.41,296.35,503.41,253.34Zm118.58,0c0-27.33-15.69-44-43.79-44S534,226,534,253.34s15.69,44,43.79,44S622,280.66,622,253.34Z"/><path class="cls-3" d="M723.62,185.52h45.92l52.71,135.63h-31.2L778.85,289H713.74l-12.4,32.16H670.72Zm.2,77.31h44.95L750,213.61H742.8Z"/><path class="cls-3" d="M851.51,185.52h72.07c34.69,0,51.54,16.27,51.54,46.69,0,22.48-9.88,37-29.06,43.21l34.49,45.73H945.48L916.8,281.24H881.34v39.91H851.51Zm71.3,69.37c16.28,0,22.09-9.11,22.09-21.32s-5.81-21.12-22.09-21.12H881.34v42.44Z"/><path class="cls-3" d="M178.73,321.15V321l56.79-70L183,185.65v-.19h35.86l35.86,46.33,36.44-46.33h35.28v.19L274.09,250.4,330.31,321v.2H294.06l-39.54-51.37L214.2,321.15Z"/></svg>