<?xml version="1.0" encoding="utf-8"?>
<!-- Generator: Adobe Illustrator 24.0.3, SVG Export Plug-In . SVG Version: 6.00 Build 0)  -->
<svg version="1.1" id="Layer_1" xmlns="http://www.w3.org/2000/svg" xmlns:xlink="http://www.w3.org/1999/xlink" x="0px" y="0px"
	 viewBox="0 0 51.6 40.6" style="enable-background:new 0 0 51.6 40.6;" xml:space="preserve">
<style type="text/css">
	.st0{fill:#00CC66;}
</style>
<title>Cortex-SOAR-black</title>
<path class="st0" d="M20.6,32.6c-6.8,0-12.3-5.5-12.3-12.3S13.9,8,20.6,8l0,0L20.6,32.6z M20.6,8V0h-0.4C9.1,0,0,9.1,0,20.3
	s9.1,20.3,20.3,20.3h0.4v-8c6.8,0,12.3-5.5,12.3-12.3S27.5,8,20.6,8L20.6,8"/>
<path class="st0" d="M46,18.5l-0.8-0.1c-1.5-0.3-2.4-0.4-2.4-0.8c0-0.6,1.2-0.7,1.9-0.7c1.1,0,2.2,0.2,3.2,0.6
	c0.6,0.2,1.3,0.1,1.8-0.2c0.9-0.7,1.1-1.9,0.5-2.9c-0.2-0.3-0.6-0.6-1-0.7c-1.4-0.5-2.8-0.8-4.3-0.8c-5,0-6.8,2.7-6.8,5
	c0,3.2,3,4.1,5.6,4.5c2.9,0.5,3.2,0.7,3.2,1c0,0.7-1.5,0.7-2,0.7c-1.4-0.1-2.7-0.4-4-0.9c-1.1-0.4-2.3,0.3-2.7,1.4
	c-0.1,0.2-0.1,0.4-0.1,0.6c0,0.9,0.6,1.7,1.4,2c1.7,0.6,3.5,0.9,5.3,0.9c6.2,0,6.7-3.7,6.7-4.9C51.6,19.5,48,18.9,46,18.5z"/>
</svg>
