<svg xmlns="http://www.w3.org/2000/svg" viewBox="0 0 90 90"><defs><style>.cls-1{fill:#fff;}.cls-2{fill:#37383d;}.cls-3{fill:#93d500;}</style></defs><title>Demisto-Icon-White</title><g id="Layer_2" data-name="Layer 2"><g id="Layer_1-2" data-name="Layer 1"><path class="cls-1" d="M14.67,0S0,0,0,14.67V75.33S0,90,14.67,90H75.33S90,90,90,75.33V14.67S90,0,75.33,0Z"/><path class="cls-2" d="M33.83,20.24,39.66,28H53.25a2.91,2.91,0,0,1,2.91,2.91V59.08A2.91,2.91,0,0,1,53.25,62H37.72V74.61H56.16A12.62,12.62,0,0,0,68.79,62V29a13.63,13.63,0,0,0-13.6-13.59h-34V58.11H33.83Z"/><rect class="cls-3" x="21.21" y="61.99" width="12.62" height="12.62"/></g></g></svg>